<svg width="1600" height="1100" viewBox="0 0 1600 1100" fill="none" xmlns="http://www.w3.org/2000/svg">
  <defs>
    <linearGradient id="gameVoid" x1="800" y1="0" x2="800" y2="1100" gradientUnits="userSpaceOnUse">
      <stop offset="0" stop-color="#090B11"/>
      <stop offset="0.45" stop-color="#10151E"/>
      <stop offset="1" stop-color="#04070B"/>
    </linearGradient>
    <radialGradient id="gamePortal" cx="0" cy="0" r="1" gradientUnits="userSpaceOnUse" gradientTransform="translate(800 470) rotate(90) scale(260 320)">
      <stop offset="0" stop-color="#44B6FF" stop-opacity="0.62"/>
      <stop offset="0.35" stop-color="#1B5F9D" stop-opacity="0.28"/>
      <stop offset="1" stop-color="#1B5F9D" stop-opacity="0"/>
    </radialGradient>
    <radialGradient id="gameFloorGlow" cx="0" cy="0" r="1" gradientUnits="userSpaceOnUse" gradientTransform="translate(800 770) rotate(90) scale(200 520)">
      <stop offset="0" stop-color="#F2A458" stop-opacity="0.24"/>
      <stop offset="1" stop-color="#F2A458" stop-opacity="0"/>
    </radialGradient>
    <linearGradient id="gameGold" x1="0" y1="0" x2="1" y2="1">
      <stop offset="0" stop-color="#F4D88F"/>
      <stop offset="1" stop-color="#A56A28"/>
    </linearGradient>
  </defs>
  <rect width="1600" height="1100" fill="url(#gameVoid)"/>
  <rect y="824" width="1600" height="276" fill="#06080D"/>
  <ellipse cx="800" cy="770" rx="520" ry="200" fill="url(#gameFloorGlow)"/>
  <path d="M258 250L348 160H1252L1342 250V842H258V250Z" fill="#0B1017"/>
  <path d="M324 298L394 232H1206L1276 298V842H324V298Z" fill="#101723"/>
  <path d="M658 340C658 265.442 718.442 205 793 205H807C881.558 205 942 265.442 942 340V842H658V340Z" fill="#0C1119" stroke="url(#gameGold)" stroke-opacity="0.45" stroke-width="10"/>
  <ellipse cx="800" cy="470" rx="320" ry="260" fill="url(#gamePortal)"/>
  <rect x="698" y="326" width="204" height="372" rx="102" fill="#070B10" stroke="url(#gameGold)" stroke-width="8"/>
  <path d="M540 842L632 694H968L1060 842H540Z" fill="#161F2B"/>
  <path d="M468 914L620 758H980L1132 914H468Z" fill="#0E141D"/>
  <path d="M398 1000L580 820H1020L1202 1000H398Z" fill="#0B1017"/>
  <path d="M362 1000H1238" stroke="url(#gameGold)" stroke-opacity="0.35" stroke-width="4" stroke-linecap="round"/>
  <path d="M514 842H1086" stroke="url(#gameGold)" stroke-opacity="0.2" stroke-width="3" stroke-linecap="round"/>
  <path d="M356 300V844" stroke="#202A38" stroke-width="24"/>
  <path d="M1244 300V844" stroke="#202A38" stroke-width="24"/>
  <path d="M324 298H1276" stroke="url(#gameGold)" stroke-opacity="0.28" stroke-width="4"/>
  <g opacity="0.45">
    <circle cx="480" cy="386" r="4" fill="#FFD59A"/>
    <circle cx="1120" cy="402" r="4" fill="#FFD59A"/>
    <circle cx="550" cy="520" r="3" fill="#6DD8FF"/>
    <circle cx="1050" cy="548" r="3" fill="#6DD8FF"/>
  </g>
</svg>
