<svg xmlns="http://www.w3.org/2000/svg" viewBox="0 0 256 256" fill="none">
  <defs>
    <radialGradient id="coreGlow" cx="0" cy="0" r="1" gradientUnits="userSpaceOnUse" gradientTransform="translate(128 118) rotate(90) scale(72 72)">
      <stop offset="0" stop-color="#F4D8FF"/>
      <stop offset="0.45" stop-color="#A56DFF"/>
      <stop offset="1" stop-color="#28143E"/>
    </radialGradient>
    <linearGradient id="goldStroke" x1="44" x2="212" y1="28" y2="228" gradientUnits="userSpaceOnUse">
      <stop stop-color="#FBE4A6"/>
      <stop offset="0.42" stop-color="#D4A052"/>
      <stop offset="1" stop-color="#7F5524"/>
    </linearGradient>
    <filter id="blurGlow" x="32" y="16" width="192" height="224" filterUnits="userSpaceOnUse">
      <feGaussianBlur stdDeviation="10"/>
    </filter>
  </defs>
  <g opacity=".72" filter="url(#blurGlow)">
    <path d="M128 36 174 82l-10 70-36 48-36-48-10-70 46-46Z" fill="#8F54FF"/>
  </g>
  <path d="M128 24 194 78l-14 90-52 64-52-64-14-90 66-54Z" stroke="url(#goldStroke)" stroke-width="6"/>
  <path d="M128 50 170 84l-10 60-32 42-32-42-10-60 42-34Z" fill="url(#coreGlow)" stroke="#EED28E" stroke-opacity=".78" stroke-width="3"/>
  <path d="m128 60 20 24-6 34-14 18-14-18-6-34 20-24Z" fill="#F7E8FF" fill-opacity=".9"/>
  <path d="M52 98c34-30 66-44 76-44s42 14 76 44" stroke="url(#goldStroke)" stroke-linecap="round" stroke-width="4"/>
  <path d="M60 158c18 14 46 34 68 34s50-20 68-34" stroke="url(#goldStroke)" stroke-linecap="round" stroke-width="4"/>
  <circle cx="128" cy="118" r="92" stroke="#FFD78C" stroke-opacity=".18" stroke-width="2"/>
  <circle cx="128" cy="118" r="108" stroke="#FFD78C" stroke-opacity=".12" stroke-width="2"/>
</svg>
